PathFileType	4	(X/Y/Z)	C:\Users\Basilio\Documents\Thesis Gigler\squatting_fais\c3dfiles\039\SLS_pre_front5\markers_experimental.trc
DataRate	CameraRate	NumFrames	NumMarkers	Units	OrigDataRate	OrigDataStartFrame	OrigNumFrames
200.000000	200.000000	4	63	mm	200.000000	996	1992
Frame#	Time	FHD			LBHD			RBHD			C7			T10			LSHO			LUUPA			LMUPA			LDUPA			LLEP			LMEP			LUL			LRFIN			RSHO			RUPA1			RMUPA			RDUPA			RLEP			RMEP			RRAD			RUL			RUFIN			LASI			RASI			USACR			LSACR			RSACR			LTHI1			LTHI2			LTHI3			LTHI4			LLFC			LMFC			LTIB1			LTIB2			LTIB3			LTIB4			LLMAL			LMMAL			LHEE			LMT1			LMT2			LMT5			RTHI			RTHI2			RTHI3			RTHI4			RLFC			RMFC			RTIB1			RTIB2			RTIB3			RTIB4			RLMAL			RMMAL			RHEE			RMT1			RMT2			RMT5			LRAD			CLAV			*61			*62			
		X1	Y1	Z1	X2	Y2	Z2	X3	Y3	Z3	X4	Y4	Z4	X5	Y5	Z5	X6	Y6	Z6	X7	Y7	Z7	X8	Y8	Z8	X9	Y9	Z9	X10	Y10	Z10	X11	Y11	Z11	X12	Y12	Z12	X13	Y13	Z13	X14	Y14	Z14	X15	Y15	Z15	X16	Y16	Z16	X17	Y17	Z17	X18	Y18	Z18	X19	Y19	Z19	X20	Y20	Z20	X21	Y21	Z21	X22	Y22	Z22	X23	Y23	Z23	X24	Y24	Z24	X25	Y25	Z25	X26	Y26	Z26	X27	Y27	Z27	X28	Y28	Z28	X29	Y29	Z29	X30	Y30	Z30	X31	Y31	Z31	X32	Y32	Z32	X33	Y33	Z33	X34	Y34	Z34	X35	Y35	Z35	X36	Y36	Z36	X37	Y37	Z37	X38	Y38	Z38	X39	Y39	Z39	X40	Y40	Z40	X41	Y41	Z41	X42	Y42	Z42	X43	Y43	Z43	X44	Y44	Z44	X45	Y45	Z45	X46	Y46	Z46	X47	Y47	Z47	X48	Y48	Z48	X49	Y49	Z49	X50	Y50	Z50	X51	Y51	Z51	X52	Y52	Z52	X53	Y53	Z53	X54	Y54	Z54	X55	Y55	Z55	X56	Y56	Z56	X57	Y57	Z57	X58	Y58	Z58	X59	Y59	Z59	X60	Y60	Z60	X61	Y61	Z61	X62	Y62	Z62	X63	Y63	Z63	

997	4.98	-219.8118743896485	1512.807861328125	-639.8597412109376	-383.1479797363282	1490.550659179688	-754.7958374023439	-350.4816284179688	1494.325073242188	-617.0279541015626	-433.6228027343751	1340.308959960938	-697.7825927734376	-541.2046508789064	1062.2333984375	-722.2358398437501	-362.6943969726563	1352.497436523438	-854.5472412109377	-205.0600585937501	1322.319580078125	-973.889831542969	-180.4780883789063	1352.15673828125	-941.783630371094	-136.0653686523438	1331.684936523438	-975.762878417969	-69.1568069458008	1340.177124023438	-972.6259765625002	-63.17661666870119	1268.21484375	-943.6904296875002	208.8894653320313	1376.7841796875	-977.4934082031252	294.1718750000001	1406.886596679688	-901.4121093750002	-317.0446777343751	1338.678588867188	-553.6591796875001	-154.2614898681641	1283.319580078125	-459.586639404297	-130.3988952636719	1318.056518554688	-487.497283935547	-85.85594940185548	1283.004028320313	-464.966522216797	-24.1130599975586	1299.541625976563	-478.2534484863282	-17.20307922363282	1231.3359375	-516.9373779296876	258.1479797363282	1354.904296875	-571.3763427734376	261.5603637695313	1347.110961914063	-495.9881896972657	342.0061950683594	1394.218872070313	-568.7066040039064	-418.8643188476564	887.3887329101565	-856.3304443359377	-407.1397094726564	872.9519653320315	-631.5379028320314	-596.8165893554689	913.5059814453127	-726.0291748046876	-602.3603515625001	882.5813598632815	-755.0473632812501	-597.1054687500001	879.4075927734377	-696.3316650390626	-287.0479736328126	700.1835937500001	-931.8818969726565	-201.9603729248047	693.7509155273439	-927.494323730469	-182.184799194336	734.7119750976564	-913.4034423828127	-168.9822845458985	642.3250122070314	-917.5149536132815	-61.65000152587892	587.5567016601564	-914.563903808594	-27.03654861450196	589.8375854492189	-800.390808105469	95.64579010009767	553.8211669921876	-890.876403808594	94.02944946289064	480.0286560058595	-937.0506591796877	122.334457397461	511.5277099609376	-919.623962402344	188.802001953125	466.2391357421876	-883.9190673828127	296.6431274414063	328.6685180664063	-924.7625732421877	310.4347839355469	334.2276306152344	-839.4433593750002	304.0193786621094	237.7920989990235	-889.986267089844	446.7256774902345	422.2435913085939	-866.6096191406252	439.2464599609376	422.4540100097657	-907.4590454101565	424.8699645996095	381.4816589355469	-964.3887329101565	-296.0370788574219	642.5269165039064	-573.6583862304689	-229.9619445800782	629.7813720703126	-573.5689086914064	-208.1985015869141	654.1603393554689	-579.9655761718751	-196.5669555664063	552.4678344726564	-586.1237182617189	-154.5318756103516	451.0892333984376	-627.6964721679689	-128.9904479980469	464.6066284179689	-734.3695678710939	-198.1970367431641	266.2799987792969	-687.3349609375001	-303.2437744140626	242.6292114257813	-677.9562377929689	-265.3609924316407	216.8340606689454	-689.3379516601564	-272.4951477050782	174.039047241211	-729.8497314453126	-373.7237548828126	117.5213470458985	-718.2891845703126	-342.2371520996094	138.2536163330078	-802.4605712890627	-450.8501281738282	104.9496536254883	-772.7371826171877	-227.1202850341797	53.1388282775879	-779.1405029296877	-231.6827239990235	56.54559326171876	-733.0377197265626	-289.3345031738282	41.22708129882813	-683.1690673828126	213.8000793457032	1369.415405273438	-901.9776611328127	nan	nan	nan	nan	nan	nan	nan	nan	nan	
998	4.985	-219.6284179687501	1512.379028320313	-640.0090942382814	-382.5478210449219	1490.050537109375	-754.7905883789064	-350.3580017089844	1493.985717773438	-617.0776367187501	-433.4356994628907	1339.804931640625	-697.8604736328126	-541.0324096679689	1061.840087890625	-722.2136230468751	-362.0787048339844	1352.12158203125	-854.361267089844	-204.9640045166016	1322.10498046875	-973.8349609375002	-180.346664428711	1351.946166992188	-941.7115478515627	-135.9072570800782	1331.482543945313	-975.791198730469	-69.05541229248048	1339.878662109375	-972.6179199218752	-63.04420471191408	1268.019287109375	-943.6978759765627	209.0070800781251	1376.584106445313	-977.5813598632815	294.3401184082032	1406.628051757813	-901.4515380859377	-316.7288208007813	1338.294677734375	-553.7650146484376	-153.8850402832032	1282.817260742188	-459.7911376953126	-130.0787353515625	1317.594970703125	-487.6334228515626	-85.56383514404298	1282.524536132813	-465.1991271972657	-23.82282447814942	1299.1357421875	-478.4056396484376	-16.97925186157227	1230.97314453125	-516.9544067382814	258.4042968750001	1354.626586914063	-571.6472778320314	261.9669799804688	1346.7919921875	-496.2385864257814	342.2463989257813	1394.040649414063	-568.9182128906251	-418.7896728515626	887.0740356445315	-856.3841552734377	-407.0232849121095	872.4998779296877	-631.6094360351564	-596.7810668945314	913.1633300781252	-725.9869384765626	-602.1798706054689	882.185729980469	-755.0062866210939	-596.9865112304689	879.0422973632815	-696.2520751953126	-286.9753417968751	699.8855590820314	-932.008728027344	-201.8762207031251	693.3248901367189	-927.634216308594	-182.1570587158203	734.3530883789064	-913.4493408203127	-168.9640655517578	641.9495849609376	-917.646423339844	-61.56204223632814	587.2391967773439	-914.7445068359377	-26.87607383728028	589.3516235351564	-800.645446777344	95.74877166748048	553.6071166992189	-891.161804199219	94.08541107177736	479.7443237304689	-937.326354980469	122.4276733398438	511.2619018554689	-919.871520996094	188.9258575439453	465.9777832031251	-884.1670532226565	296.1969909667969	328.7655334472657	-925.3002929687502	310.5929260253907	333.9961853027344	-839.7728271484377	304.0891723632813	237.5536804199219	-890.3305664062502	446.8558654785157	421.8986206054689	-866.9270019531252	439.4338378906251	422.127655029297	-907.8632812500002	425.008026123047	381.0940246582032	-964.8039550781252	-295.7586059570313	642.2078247070314	-573.6996459960939	-229.7802734375001	629.5843505859376	-573.7149047851564	-207.8144073486329	653.8853149414064	-580.1356811523439	-196.2625122070313	552.1342163085939	-586.2380371093751	-154.1761322021485	450.9520568847657	-627.7071533203126	-128.7487945556641	464.3226318359376	-734.4936523437501	-197.9660034179688	266.0661621093751	-687.4707031250001	-303.0393676757813	242.5147552490235	-677.9577026367189	-265.2394714355469	216.7797241210938	-689.4418334960939	-272.3808898925782	173.9119110107422	-729.8972167968751	-373.6863403320313	117.5103149414063	-718.3114013671876	-342.1665954589844	138.2530822753907	-802.4484863281252	-450.8468017578126	104.9740371704102	-772.728698730469	-227.1540527343751	53.07321929931642	-779.2232055664065	-231.6976318359376	56.57921981811525	-733.0488891601564	-289.3107299804688	41.24632644653321	-683.1565551757814	213.973861694336	1369.227416992188	-902.0628662109377	nan	nan	nan	nan	nan	nan	nan	nan	nan	
999	4.99	-219.4657897949219	1511.909301757813	-640.0220947265626	-381.8745117187501	1489.519897460938	-754.7532958984376	-350.2180175781251	1493.402221679688	-617.0268554687501	-433.1088256835939	1339.394653320313	-697.8874511718751	-540.9321289062501	1061.39208984375	-722.1771850585939	-361.9553833007813	1351.693725585938	-854.2925415039065	-204.8143463134766	1321.869140625	-973.8109130859377	-180.2687225341797	1351.905151367188	-941.606140136719	-135.8545837402344	1331.238891601563	-975.7503662109377	-68.98886871337892	1339.68212890625	-972.6531982421877	-62.92285156250001	1267.82275390625	-943.7510375976565	208.9970855712891	1376.477416992188	-977.647644042969	294.4530029296876	1406.536743164063	-901.5012207031252	-316.4446105957032	1337.80029296875	-553.7997436523439	-153.6684112548828	1282.479248046875	-459.9057922363282	-129.8068084716797	1317.263793945313	-487.8742065429689	-85.26783752441408	1282.221313476563	-465.3781738281251	-23.60279846191407	1298.639770507813	-478.5065002441407	-16.77006721496582	1230.614135742188	-517.0191650390626	258.7364501953126	1354.374389648438	-571.8612670898439	262.3939819335938	1346.54931640625	-496.5881347656251	342.5735778808594	1393.754760742188	-569.2116088867189	-418.6665649414064	886.699157714844	-856.4838867187502	-406.9061584472657	871.923767089844	-631.6912231445314	-596.5643920898439	912.7190551757815	-725.9973754882814	-602.1179199218751	881.7565917968752	-755.0009155273439	-596.8690795898439	878.7039794921877	-696.2144165039064	-286.9088745117188	699.5606079101564	-932.072204589844	-201.7569427490235	692.9873657226564	-927.7736816406252	-182.0603179931641	734.1068115234376	-913.5488891601565	-168.7839660644532	641.6508178710939	-917.7733154296877	-61.27108383178712	586.8388061523439	-914.8885498046877	-26.68162727355958	588.9755249023439	-800.7851562500002	95.87982177734376	553.3412475585939	-891.3679809570315	94.16873931884767	479.4749145507814	-937.5952758789065	122.5034713745117	510.884246826172	-920.116149902344	189.0799102783203	465.6200256347657	-884.418640136719	296.3124389648438	328.3756713867188	-925.7573852539065	310.6854858398438	333.7604675292969	-840.2487792968752	304.1004028320313	237.3475341796876	-890.7669067382815	447.0626831054689	421.4983215332032	-867.3618164062502	439.5581970214845	421.8112182617189	-908.2759399414065	425.1784973144532	380.7814025878907	-965.1766357421877	-295.6049499511719	641.9779663085939	-573.7082519531251	-229.6297149658204	629.3032226562501	-573.7095336914064	-207.4897460937501	653.5508422851564	-580.3291625976564	-196.1437072753907	551.9067382812501	-586.1854248046876	-153.7740631103516	450.6527404785157	-627.8672485351564	-128.546875	464.0982971191407	-734.6311035156251	-197.8587951660157	265.9458007812501	-687.6290893554689	-302.8847961425782	242.4399108886719	-677.9342651367189	-265.0837097167969	216.7802429199219	-689.4682617187501	-272.3033142089844	173.8203277587891	-729.9370117187501	-373.6815490722657	117.5421600341797	-718.2893066406251	-342.1791687011719	138.2493743896485	-802.5136718750002	-450.8515625000001	104.9604644775391	-772.7238769531252	-227.1512603759766	53.10835266113283	-779.2166748046877	-231.6742095947266	56.55783843994142	-733.0861206054689	-289.2947387695313	41.23969268798829	-683.1695556640626	214.0284881591797	1369.060424804688	-902.1592407226565	nan	nan	nan	nan	nan	nan	nan	nan	nan	
1000	4.995	-219.3076934814454	1511.434936523438	-639.9421386718751	-381.2275085449219	1488.978515625	-754.6934204101564	-350.0862731933594	1492.862915039063	-616.9674682617189	-432.9952697753907	1339.067260742188	-697.7149658203126	-540.7489624023439	1061.010009765625	-722.1684570312501	-361.8485717773438	1351.320068359375	-854.2390747070315	-204.7248535156251	1321.727416992188	-973.7713623046877	-180.117904663086	1351.731811523438	-941.5728759765627	-135.622802734375	1330.976684570313	-975.7127685546877	-68.90279388427736	1339.42041015625	-972.6489257812502	-62.73601531982423	1267.566162109375	-943.7672119140627	209.2373199462891	1376.2529296875	-977.7564697265627	294.6277465820313	1406.352172851563	-901.5556640625002	-316.2603454589844	1337.261962890625	-553.7946777343751	-153.3103332519532	1281.906494140625	-460.0055236816407	-129.2484283447266	1317.14892578125	-487.8721008300782	-84.97203826904298	1281.828002929688	-465.6217651367189	-23.36197090148926	1298.3837890625	-478.6052246093751	-16.42060852050782	1230.231567382813	-517.1718139648439	259.0455627441407	1354.120727539063	-572.0844116210939	262.6681823730469	1346.143188476563	-496.8387145996095	342.8116149902344	1393.510375976563	-569.5480957031251	-418.185272216797	886.357360839844	-856.657897949219	-406.6944274902345	871.4782714843752	-631.7258911132814	-596.3557128906251	912.322204589844	-725.9997558593751	-602.0023193359376	881.4533691406252	-754.9487915039064	-596.5679321289064	878.3450927734377	-696.1947021484376	-286.5334472656251	699.5449829101564	-932.0720214843752	-201.7071075439454	692.6201782226564	-927.877868652344	-181.8814849853516	733.8466186523439	-913.6295166015627	-168.5956420898438	641.3872680664064	-917.939392089844	-61.29632568359376	586.6346435546876	-915.144226074219	-26.5964469909668	588.7380371093751	-801.0080566406252	96.01759338378909	552.9932250976564	-891.6060180664065	94.39125061035158	479.2500305175782	-937.929138183594	122.4008026123047	510.5434570312501	-920.493347167969	189.2286071777344	465.3114318847657	-884.7442016601565	296.3861389160157	328.1662597656251	-926.1748046875002	310.9393310546876	333.2943115234376	-840.5691528320315	304.1467285156251	237.1421813964844	-891.116149902344	447.319305419922	421.1385192871095	-867.7622680664065	439.7509155273439	421.5496215820314	-908.6639404296877	425.3579711914064	380.5335083007813	-965.7351684570315	-295.4411621093751	641.7006835937501	-573.7093505859376	-229.4898376464844	629.1077270507814	-573.6836547851564	-207.1876983642579	653.2686157226564	-580.4369506835939	-196.0162963867188	551.6527709960939	-586.2088012695314	-153.384033203125	450.4901733398439	-628.0072631835939	-128.2705230712891	464.005584716797	-734.7848510742189	-197.7806243896485	265.8260192871094	-687.7614135742189	-302.7946472167969	242.4589843750001	-678.0081176757814	-265.0025939941407	216.6147460937501	-689.5891723632814	-272.2222595214844	173.7837829589844	-730.1247558593751	-373.6068420410157	117.5541687011719	-718.2924194335939	-342.1874694824219	138.2115783691407	-802.504821777344	-450.8341674804689	104.9993896484375	-772.7280883789065	-227.1531829833985	53.06378173828126	-779.2388916015627	-231.6743621826172	56.55440902709962	-733.1005859375001	-289.2674255371094	41.2013053894043	-683.1965942382814	214.180160522461	1368.874389648438	-902.205749511719	nan	nan	nan	nan	nan	nan	nan	nan	nan	
